<?xml version="1.0" encoding="UTF-8"?>
<svg id="Layer_1" data-name="Layer 1" xmlns="http://www.w3.org/2000/svg" viewBox="550 620 450 330">
  <defs>
    <style>
      .cls-1 {
        fill: #df9125;
      }

      .cls-2 {
        fill: #54a195;
      }

      .cls-3 {
        fill: #1a3043;
      }
    </style>
  </defs>
  <path class="cls-1"
      d="M812,804.69l-39.78-27.99c5.62,37.09,12.6,84.12,12.32,90.97,0,0-.3,1.64,1.75,3.48,2.22,1.99,22.46,15.91,30.83,20.86,0,0,2.65,1,2.65-3.97,0,0-3.65-38.26-7.77-83.35Z" />
  <path class="cls-3"
      d="M800.6,664.58s0-3.99-3.97-4.48c-4.4,0-59.89-.49-66.91-.49,0,0-2.65-1-3.97,3.97-1.32,4.46-30.38,151.46-36.55,172.81,0,0-.73,3.39-3.52,3.48-3.07.09-11.23-5.36-11.23-5.36,0,0-.94-.81-2.75-5.7-2.26-6.11-35.93-154.88-38.86-166.21,0,0-.43-2.5-1.75-2.5,0,0-52.39-.49-72.66-.49,0,0-2.2-.49-2.2,5.47-.9,69.03,1.9,76.76,1,129.38,0,0-.88,1.49,2.22,2.99,2.63,1.99,30.38,21.35,32.13,22.85,0,0,1.32.98,1.32-1.99,0,0-.58-59.38-.58-87.69,0,0-.45-2.99,2.2-2.99h16.74s.88,0,1.32,1.99c.43,2.5,20.69,104.79,23.76,118.69,0,0,1.32,3.48,4.4,5.96,3.52,2.5,56.37,41.23,66.51,48.19,0,0,2.5,1.32,3.95-4.48,1.86-7.32,33.03-162.37,33.9-168.35,0,0,0-1.99,3.1-2.48h15.42s1.75.49,1.75,3.48c0,1.05,2.37,16.55,5.44,36.83l40.4,28.42c-5.02-54.98-10.38-116.81-10.61-131.28Z" />
  <path class="cls-1"
      d="M869.61,922.83c-.4,1.02-.85,1.77-1.31,2.33-.95,1.17-2.66,1.35-3.91.51-5.99-4.09-27.83-19.13-29.28-22.03-1.2-2.41.54-6.45.54-6.45,15.17-41.05,94.44-263.17,96.57-268.33,1.69-5.24,4-2.79,4-2.79,15.02,9.8,29.3,21.48,29.3,21.48,2.53.97.12,5.06.12,5.06-19.13,52.42-94.2,267.05-96.02,270.24Z" />
</svg>