<?xml version="1.0" encoding="UTF-8"?>
<svg id="Layer_1" data-name="Layer 1" xmlns="http://www.w3.org/2000/svg" viewBox="0 550 420 450">
  <defs>
    <style>
      .cls-1 {
        fill: #df9125;
      }

      .cls-3 {
        fill: #1a3043;
      }
    </style>
  </defs>
  <g>
    <path class="cls-1" d="M236.29,699.82l-31.04-21.84c4.38,28.94,9.83,65.64,9.61,70.99,0,0-.23,1.28,1.37,2.72,1.73,1.55,17.53,12.41,24.06,16.28,0,0,2.07.78,2.07-3.1,0,0-2.85-29.85-6.06-65.04Z"/>
    <path class="cls-3" d="M227.4,590.5s0-3.12-3.1-3.5c-3.43,0-46.73-.38-52.21-.38,0,0-2.07-.78-3.1,3.1-1.03,3.48-23.71,118.18-28.52,134.84,0,0-.57,2.65-2.75,2.72-2.4.07-8.76-4.18-8.76-4.18,0,0-.73-.63-2.15-4.45-1.77-4.76-28.04-120.85-30.32-129.7,0,0-.33-1.95-1.37-1.95,0,0-40.88-.38-56.69-.38,0,0-1.72-.38-1.72,4.26-.7,53.86,1.48,59.89.78,100.96,0,0-.16,1.35,1.73,2.33,2.05,1.55,23.71,16.66,25.07,17.83,0,0,1.03.77,1.03-1.55,0,0-.45-46.33-.45-68.42,0,0-.35-2.33,1.72-2.33h13.06s.68,0,1.03,1.55c.33,1.95,16.14,81.77,18.54,92.61,0,0,1.03,2.72,3.43,4.65,2.75,1.95,43.98,32.17,51.89,37.6,0,0,1.95,1.03,3.08-3.5,1.45-5.71,25.77-126.7,26.46-131.36,0,0,0-1.55,2.42-1.93h12.03s1.37.38,1.37,2.72c0,.82,1.85,12.91,4.25,28.74l31.52,22.17c-3.91-42.9-8.1-91.15-8.28-102.44Z"/>
    <path class="cls-1" d="M281.24,792.01c-.31.8-.67,1.38-1.02,1.82-.75.91-2.08,1.06-3.05.39-4.67-3.19-21.72-14.92-22.85-17.19-.94-1.88.42-5.04.42-5.04,11.83-32.03,73.69-205.35,75.35-209.37,1.32-4.09,3.12-2.18,3.12-2.18,11.72,7.64,22.86,16.76,22.86,16.76,1.97.76.1,3.95.1,3.95-14.93,40.9-73.5,208.37-74.93,210.86Z"/>
    <g>
      <path class="cls-1" d="M28.54,974.24h-8.1c-3.34,0-6.22-1.19-8.63-3.57-2.41-2.38-3.62-5.24-3.62-8.58v-26.27h-4.15c-1.12,0-2.08-.39-2.87-1.16-.79-.77-1.18-1.74-1.18-2.89s.39-2.08,1.18-2.87,1.74-1.18,2.87-1.18h4.24v-9.93c0-1.12.39-2.08,1.18-2.87s1.74-1.18,2.87-1.18c1.06,0,2,.4,2.82,1.21.82.8,1.23,1.75,1.23,2.84v9.93h16.29c1.09,0,2.04.4,2.84,1.21.8.8,1.21,1.75,1.21,2.84s-.4,2.08-1.21,2.87c-.8.79-1.75,1.18-2.84,1.18h-16.39v26.27c0,1.09.41,2.04,1.23,2.84.82.8,1.79,1.21,2.92,1.21h7.91c2.15,0,3.58-1.17,4.29-3.5.71-2.33,2.07-3.5,4.1-3.5,1.19,0,2.16.39,2.92,1.18.75.79,1.13,1.78,1.13,2.96,0,2.44-1.15,4.88-3.45,7.3-2.3,2.43-5.23,3.64-8.8,3.64Z"/>
      <path class="cls-1" d="M64,945.02h15.88c.87,0,2.12.19,3.77.58l-.09-5.74c0-1.12-.39-2.08-1.18-2.87-.79-.79-1.75-1.18-2.88-1.18h-15.41c-1.09,0-2.04-.4-2.85-1.21-.8-.8-1.21-1.75-1.21-2.84s.39-2.08,1.18-2.87c.79-.79,1.75-1.18,2.87-1.18h15.4c3.35,0,6.2,1.17,8.57,3.52,2.37,2.35,3.6,5.22,3.69,8.63l1.01,30.32c0,1.12-.4,2.08-1.21,2.87-.8.79-1.75,1.18-2.84,1.18-1.16,0-2.14-.39-2.94-1.18-.8-.79-1.21-1.74-1.21-2.87l-6.86,4.05h-13.71c-3.41,0-6.31-1.19-8.69-3.57-2.38-2.38-3.57-5.27-3.57-8.68v-4.72c0-3.38,1.2-6.26,3.6-8.65,2.4-2.39,5.29-3.59,8.67-3.59ZM84.25,960.79l-.24-3.42c-.03-1.16-.44-2.12-1.21-2.89-.77-.77-1.72-1.16-2.85-1.16h-15.97c-1.13,0-2.08.39-2.87,1.18-.79.79-1.18,1.74-1.18,2.87v4.53c0,1.09.4,2.04,1.21,2.84.8.8,1.75,1.21,2.85,1.21h11.44l8.83-5.16Z"/>
      <path class="cls-1" d="M103.76,970.19v-38.42c0-1.12.39-2.1,1.18-2.92.79-.82,1.74-1.23,2.87-1.23s2.08.4,2.87,1.21c.79.8,1.18,1.78,1.18,2.94v5.06l6.6-5.64c2.73-2.31,5.4-3.47,8-3.47h5.93c3.34,0,6.2,1.19,8.58,3.57,2.38,2.38,3.57,5.24,3.57,8.58v2.17c0,1.16-.39,2.14-1.18,2.94-.79.8-1.74,1.21-2.87,1.21s-2.08-.39-2.87-1.18c-.79-.79-1.18-1.74-1.18-2.87v-2.27c0-1.12-.39-2.08-1.18-2.87-.79-.79-1.74-1.18-2.87-1.18h-5.25c-1.13,0-2.38.59-3.76,1.78l-11.52,9.98v22.61c0,1.12-.4,2.08-1.21,2.87-.8.79-1.75,1.18-2.84,1.18s-2.08-.39-2.87-1.18c-.79-.79-1.18-1.74-1.18-2.87Z"/>
      <path class="cls-1" d="M155.6,970.19v-55.87c0-1.16.39-2.14,1.18-2.94.79-.8,1.74-1.21,2.87-1.21s2.08.4,2.87,1.21c.79.8,1.18,1.79,1.18,2.94v33.07l21.79-18.52c.93-.77,1.94-1.16,3.04-1.16,1.16,0,2.12.41,2.89,1.23.77.82,1.16,1.8,1.16,2.92,0,1.19-.41,2.14-1.24,2.85l-16.99,14.35,20.93,18.38c.84.67,1.26,1.56,1.26,2.65s-.39,2.01-1.16,2.87c-.77.85-1.72,1.28-2.84,1.28s-2.12-.37-2.99-1.11l-21.58-18.75-4.26,3.58v12.24c0,1.12-.39,2.08-1.18,2.87-.79.79-1.74,1.18-2.87,1.18s-2.08-.39-2.87-1.18c-.79-.79-1.18-1.74-1.18-2.87Z"/>
      <path class="cls-1" d="M248.27,931.76v7.71l-14.05,31.92c-.9,1.89-2.09,2.83-3.57,2.83h-5.21c-1.9,0-3.28-.98-4.15-2.95l-13.96-31.71v-7.81c0-1.12.39-2.08,1.18-2.87s1.74-1.18,2.87-1.18,2.08.39,2.87,1.18c.79.79,1.18,1.74,1.18,2.87l.03,6.21,12.33,27.78,12.27-27.87v-6.12c0-1.12.41-2.08,1.21-2.87.8-.79,1.78-1.18,2.94-1.18s2.08.39,2.87,1.18c.79.79,1.18,1.74,1.18,2.87Z"/>
      <path class="cls-1" d="M271.34,945.02h15.88c.87,0,2.12.19,3.77.58l-.09-5.74c0-1.12-.39-2.08-1.18-2.87-.79-.79-1.75-1.18-2.88-1.18h-15.41c-1.09,0-2.04-.4-2.85-1.21-.8-.8-1.21-1.75-1.21-2.84s.39-2.08,1.18-2.87c.79-.79,1.75-1.18,2.87-1.18h15.4c3.35,0,6.2,1.17,8.57,3.52,2.37,2.35,3.6,5.22,3.69,8.63l1.01,30.32c0,1.12-.4,2.08-1.21,2.87-.8.79-1.75,1.18-2.84,1.18-1.16,0-2.14-.39-2.94-1.18-.8-.79-1.21-1.74-1.21-2.87l-6.86,4.05h-13.71c-3.41,0-6.31-1.19-8.69-3.57-2.38-2.38-3.57-5.27-3.57-8.68v-4.72c0-3.38,1.2-6.26,3.6-8.65,2.4-2.39,5.29-3.59,8.67-3.59ZM291.59,960.79l-.24-3.42c-.03-1.16-.44-2.12-1.21-2.89-.77-.77-1.72-1.16-2.85-1.16h-15.97c-1.13,0-2.08.39-2.87,1.18-.79.79-1.18,1.74-1.18,2.87v4.53c0,1.09.4,2.04,1.21,2.84.8.8,1.75,1.21,2.85,1.21h11.44l8.83-5.16Z"/>
      <path class="cls-1" d="M311.1,970.19v-38.42c0-1.12.39-2.1,1.18-2.92.79-.82,1.74-1.23,2.87-1.23s2.08.4,2.87,1.21c.79.8,1.18,1.78,1.18,2.94v5.06l6.6-5.64c2.73-2.31,5.4-3.47,8-3.47h5.93c3.34,0,6.2,1.19,8.58,3.57,2.38,2.38,3.57,5.24,3.57,8.58v2.17c0,1.16-.39,2.14-1.18,2.94-.79.8-1.74,1.21-2.87,1.21s-2.08-.39-2.87-1.18c-.79-.79-1.18-1.74-1.18-2.87v-2.27c0-1.12-.39-2.08-1.18-2.87-.79-.79-1.74-1.18-2.87-1.18h-5.25c-1.12,0-2.38.59-3.76,1.78l-11.52,9.98v22.61c0,1.12-.4,2.08-1.21,2.87-.8.79-1.75,1.18-2.84,1.18s-2.08-.39-2.87-1.18c-.79-.79-1.18-1.74-1.18-2.87Z"/>
      <path class="cls-1" d="M375.01,945.02h15.88c.87,0,2.12.19,3.77.58l-.09-5.74c0-1.12-.39-2.08-1.18-2.87-.79-.79-1.75-1.18-2.88-1.18h-15.41c-1.09,0-2.04-.4-2.85-1.21-.8-.8-1.21-1.75-1.21-2.84s.39-2.08,1.18-2.87c.79-.79,1.75-1.18,2.87-1.18h15.4c3.35,0,6.2,1.17,8.57,3.52,2.37,2.35,3.6,5.22,3.69,8.63l1.01,30.32c0,1.12-.4,2.08-1.21,2.87-.8.79-1.75,1.18-2.84,1.18-1.16,0-2.14-.39-2.94-1.18-.8-.79-1.21-1.74-1.21-2.87l-6.86,4.05h-13.71c-3.41,0-6.31-1.19-8.69-3.57-2.38-2.38-3.57-5.27-3.57-8.68v-4.72c0-3.38,1.2-6.26,3.6-8.65,2.4-2.39,5.29-3.59,8.67-3.59ZM395.26,960.79l-.24-3.42c-.03-1.16-.44-2.12-1.21-2.89-.77-.77-1.72-1.16-2.85-1.16h-15.97c-1.13,0-2.08.39-2.87,1.18-.79.79-1.18,1.74-1.18,2.87v4.53c0,1.09.4,2.04,1.21,2.84.8.8,1.75,1.21,2.85,1.21h11.44l8.83-5.16Z"/>
    </g>
    <path class="cls-3" d="M98.49,906.77h-18.68v-50.25c0-5.43.23-11.42.7-17.98h-.47c-.98,5.15-1.85,8.87-2.64,11.13l-19.68,57.11h-15.46l-20.03-56.52c-.55-1.52-1.43-5.43-2.64-11.71h-.53c.51,8.28.76,15.54.76,21.79v46.45H2.79v-83.99h27.7l17.16,49.78c1.37,3.98,2.36,7.99,2.99,12.01h.35c1.05-4.65,2.17-8.69,3.34-12.12l17.16-49.67h27v83.99Z"/>
    <path class="cls-3" d="M165.67,906.77h-17.51v-8.61h-.23c-4.02,6.72-9.98,10.07-17.86,10.07-5.82,0-10.4-1.65-13.73-4.95-3.34-3.3-5.01-7.7-5.01-13.21,0-11.63,6.89-18.35,20.67-20.15l16.28-2.17c0-6.56-3.55-9.84-10.66-9.84s-13.94,2.13-20.38,6.38v-13.94c2.58-1.33,6.1-2.5,10.57-3.51,4.47-1.02,8.54-1.52,12.21-1.52,17.1,0,25.65,8.53,25.65,25.59v35.84ZM148.28,882.41v-4.04l-10.89,1.41c-6.01.78-9.02,3.49-9.02,8.14,0,2.11.73,3.84,2.2,5.18s3.45,2.02,5.94,2.02c3.48,0,6.31-1.2,8.49-3.6,2.19-2.4,3.28-5.44,3.28-9.11Z"/>
    <path class="cls-3" d="M219.44,863.49c-2.23-1.21-4.82-1.82-7.79-1.82-4.02,0-7.16,1.47-9.43,4.42-2.26,2.95-3.4,6.96-3.4,12.04v28.64h-18.51v-59.97h18.51v11.13h.23c2.93-8.12,8.2-12.18,15.81-12.18,1.95,0,3.48.23,4.57.7v17.04Z"/>
    <path class="cls-3" d="M299.79,822.79l-28.93,83.99h-21.44l-28.58-83.99h20.38l17.51,58.45c.94,3.16,1.5,5.95,1.7,8.38h.35c.27-2.61.88-5.48,1.82-8.61l17.4-58.22h19.8Z"/>
    <path class="cls-3" d="M357.95,906.77h-17.51v-8.61h-.23c-4.02,6.72-9.98,10.07-17.86,10.07-5.82,0-10.4-1.65-13.73-4.95-3.34-3.3-5.01-7.7-5.01-13.21,0-11.63,6.89-18.35,20.67-20.15l16.28-2.17c0-6.56-3.55-9.84-10.66-9.84s-13.94,2.13-20.38,6.38v-13.94c2.58-1.33,6.1-2.5,10.57-3.51,4.47-1.02,8.54-1.52,12.21-1.52,17.1,0,25.65,8.53,25.65,25.59v35.84ZM340.56,882.41v-4.04l-10.89,1.41c-6.01.78-9.02,3.49-9.02,8.14,0,2.11.73,3.84,2.2,5.18s3.45,2.02,5.94,2.02c3.48,0,6.31-1.2,8.49-3.6s3.28-5.44,3.28-9.11Z"/>
    <path class="cls-3" d="M411.72,863.49c-2.23-1.21-4.82-1.82-7.79-1.82-4.02,0-7.16,1.47-9.43,4.42-2.26,2.95-3.4,6.96-3.4,12.04v28.64h-18.51v-59.97h18.51v11.13h.23c2.93-8.12,8.2-12.18,15.81-12.18,1.95,0,3.48.23,4.57.7v17.04Z"/>
  </g>
</svg>
